# xmcd
#
# Track frame offsets:
#	150
#	15042
#	29214
#	44692
#	58591
#	73023
#	86628
#	98168
#	113100
#	126053
#	138810
#	149881
#	162927
#	175410
#	210763
#
# Disc length: 3159 seconds
#
# Revision: 1
# Processed by: cddbd v1.4PL0 Copyright (c) Steve Scherf et al.
# Submitted via: audiograbber 1.81.03
#
DISCID=d30c550f
DTITLE=Various Artist - Blues - Volume 1
DYEAR=1900
DGENRE=Blues
TTITLE0=These Foolish Things (Billie Holiday)
TTITLE1=Strange Fruit (Billie Holiday)
TTITLE2=Down Hearted Blues (Bessie Smith)
TTITLE3=Gulf Coast Blues (Bessie Smith)
TTITLE4=St Louis Blues (Bessie Smith)
TTITLE5=Match Box Blues (Blind Lemon Jefferson)
TTITLE6=Statesboro' Blues (Blind Willie McTell)
TTITLE7=C C Rider (Ma Rainey)
TTITLE8=Evil Gal Blues (Dinah Washington)
TTITLE9=Baby Get Lost (Dinah Washington)
TTITLE10=This Bitter Earth (Dinah Washington)
TTITLE11=Dust My Broom (Elmore James)
TTITLE12=The Sky Is Crying (Elmore James)
TTITLE13=Kansas City (live) (Muddy Waters)
TTITLE14=They Call Me Muddy Waters (live) (Muddy Waters)
EXTD=
EXTT0=
EXTT1=
EXTT2=
EXTT3=
EXTT4=
EXTT5=
EXTT6=
EXTT7=
EXTT8=
EXTT9=
EXTT10=
EXTT11=
EXTT12=
EXTT13=
EXTT14=
PLAYORDER=
